<mxfile host="app.diagrams.net" agent="Mozilla/5.0 (Macintosh; Intel Mac OS X 10.15; rv:132.0) Gecko/20100101 Firefox/132.0" version="24.9.1">
  <diagram name="Page-1" id="TC8eIvS5AJwY11u6MmBl">
    <mxGraphModel dx="1647" dy="933" grid="1" gridSize="10" guides="1" tooltips="1" connect="1" arrows="1" fold="1" page="1" pageScale="1" pageWidth="850" pageHeight="1100" math="0" shadow="0">
      <root>
        <mxCell id="0" />
        <mxCell id="1" parent="0" />
        <mxCell id="K5UNilDVBnnlTLyJL09D-1" value="&lt;div&gt;Hosts&lt;/div&gt;" style="rounded=1;whiteSpace=wrap;html=1;" vertex="1" parent="1">
          <mxGeometry x="110" y="160" width="400" height="240" as="geometry" />
        </mxCell>
        <mxCell id="K5UNilDVBnnlTLyJL09D-27" style="edgeStyle=orthogonalEdgeStyle;rounded=0;orthogonalLoop=1;jettySize=auto;html=1;entryX=0;entryY=0.5;entryDx=0;entryDy=0;" edge="1" parent="1" source="K5UNilDVBnnlTLyJL09D-2" target="K5UNilDVBnnlTLyJL09D-9">
          <mxGeometry relative="1" as="geometry">
            <Array as="points">
              <mxPoint x="310" y="430" />
              <mxPoint x="580" y="430" />
              <mxPoint x="580" y="370" />
            </Array>
          </mxGeometry>
        </mxCell>
        <mxCell id="K5UNilDVBnnlTLyJL09D-2" value="Crowdsec" style="rounded=1;whiteSpace=wrap;html=1;" vertex="1" parent="1">
          <mxGeometry x="250" y="320" width="120" height="60" as="geometry" />
        </mxCell>
        <mxCell id="K5UNilDVBnnlTLyJL09D-28" style="edgeStyle=orthogonalEdgeStyle;rounded=0;orthogonalLoop=1;jettySize=auto;html=1;entryX=0;entryY=0.5;entryDx=0;entryDy=0;" edge="1" parent="1" source="K5UNilDVBnnlTLyJL09D-3" target="K5UNilDVBnnlTLyJL09D-9">
          <mxGeometry relative="1" as="geometry">
            <Array as="points">
              <mxPoint x="180" y="460" />
              <mxPoint x="580" y="460" />
              <mxPoint x="580" y="370" />
            </Array>
          </mxGeometry>
        </mxCell>
        <mxCell id="K5UNilDVBnnlTLyJL09D-3" value="Fail2Ban" style="rounded=1;whiteSpace=wrap;html=1;" vertex="1" parent="1">
          <mxGeometry x="120" y="320" width="120" height="60" as="geometry" />
        </mxCell>
        <mxCell id="K5UNilDVBnnlTLyJL09D-26" style="edgeStyle=orthogonalEdgeStyle;rounded=0;orthogonalLoop=1;jettySize=auto;html=1;entryX=0;entryY=0.5;entryDx=0;entryDy=0;" edge="1" parent="1" source="K5UNilDVBnnlTLyJL09D-4" target="K5UNilDVBnnlTLyJL09D-9">
          <mxGeometry relative="1" as="geometry">
            <Array as="points">
              <mxPoint x="580" y="350" />
              <mxPoint x="580" y="370" />
            </Array>
          </mxGeometry>
        </mxCell>
        <mxCell id="K5UNilDVBnnlTLyJL09D-4" value="Wazuh Agent" style="rounded=1;whiteSpace=wrap;html=1;" vertex="1" parent="1">
          <mxGeometry x="380" y="320" width="120" height="60" as="geometry" />
        </mxCell>
        <mxCell id="K5UNilDVBnnlTLyJL09D-21" style="edgeStyle=orthogonalEdgeStyle;rounded=0;orthogonalLoop=1;jettySize=auto;html=1;entryX=0;entryY=0.5;entryDx=0;entryDy=0;" edge="1" parent="1" source="K5UNilDVBnnlTLyJL09D-5" target="K5UNilDVBnnlTLyJL09D-7">
          <mxGeometry relative="1" as="geometry" />
        </mxCell>
        <mxCell id="K5UNilDVBnnlTLyJL09D-5" value="Promtail Agent" style="rounded=1;whiteSpace=wrap;html=1;" vertex="1" parent="1">
          <mxGeometry x="380" y="250" width="120" height="60" as="geometry" />
        </mxCell>
        <mxCell id="K5UNilDVBnnlTLyJL09D-23" style="edgeStyle=orthogonalEdgeStyle;rounded=0;orthogonalLoop=1;jettySize=auto;html=1;entryX=0;entryY=0.5;entryDx=0;entryDy=0;" edge="1" parent="1" source="K5UNilDVBnnlTLyJL09D-6" target="K5UNilDVBnnlTLyJL09D-12">
          <mxGeometry relative="1" as="geometry" />
        </mxCell>
        <mxCell id="K5UNilDVBnnlTLyJL09D-6" value="Prometheus Node Exporter" style="rounded=1;whiteSpace=wrap;html=1;" vertex="1" parent="1">
          <mxGeometry x="380" y="180" width="120" height="60" as="geometry" />
        </mxCell>
        <mxCell id="K5UNilDVBnnlTLyJL09D-22" style="edgeStyle=orthogonalEdgeStyle;rounded=0;orthogonalLoop=1;jettySize=auto;html=1;entryX=0;entryY=0.5;entryDx=0;entryDy=0;" edge="1" parent="1" source="K5UNilDVBnnlTLyJL09D-7" target="K5UNilDVBnnlTLyJL09D-8">
          <mxGeometry relative="1" as="geometry" />
        </mxCell>
        <mxCell id="K5UNilDVBnnlTLyJL09D-7" value="Loki" style="rounded=1;whiteSpace=wrap;html=1;" vertex="1" parent="1">
          <mxGeometry x="670" y="250" width="120" height="60" as="geometry" />
        </mxCell>
        <mxCell id="K5UNilDVBnnlTLyJL09D-8" value="Grafana" style="rounded=1;whiteSpace=wrap;html=1;" vertex="1" parent="1">
          <mxGeometry x="830" y="250" width="120" height="60" as="geometry" />
        </mxCell>
        <mxCell id="K5UNilDVBnnlTLyJL09D-29" style="edgeStyle=orthogonalEdgeStyle;rounded=0;orthogonalLoop=1;jettySize=auto;html=1;entryX=0.5;entryY=1;entryDx=0;entryDy=0;" edge="1" parent="1" source="K5UNilDVBnnlTLyJL09D-9" target="K5UNilDVBnnlTLyJL09D-8">
          <mxGeometry relative="1" as="geometry" />
        </mxCell>
        <mxCell id="K5UNilDVBnnlTLyJL09D-30" style="edgeStyle=orthogonalEdgeStyle;rounded=0;orthogonalLoop=1;jettySize=auto;html=1;entryX=0;entryY=0.5;entryDx=0;entryDy=0;" edge="1" parent="1" source="K5UNilDVBnnlTLyJL09D-9" target="K5UNilDVBnnlTLyJL09D-11">
          <mxGeometry relative="1" as="geometry" />
        </mxCell>
        <mxCell id="K5UNilDVBnnlTLyJL09D-9" value="Wazuh" style="rounded=1;whiteSpace=wrap;html=1;" vertex="1" parent="1">
          <mxGeometry x="670" y="340" width="120" height="60" as="geometry" />
        </mxCell>
        <mxCell id="K5UNilDVBnnlTLyJL09D-25" style="edgeStyle=orthogonalEdgeStyle;rounded=0;orthogonalLoop=1;jettySize=auto;html=1;" edge="1" parent="1" source="K5UNilDVBnnlTLyJL09D-10" target="K5UNilDVBnnlTLyJL09D-9">
          <mxGeometry relative="1" as="geometry" />
        </mxCell>
        <mxCell id="K5UNilDVBnnlTLyJL09D-10" value="Zeek" style="rounded=1;whiteSpace=wrap;html=1;" vertex="1" parent="1">
          <mxGeometry x="670" y="430" width="120" height="60" as="geometry" />
        </mxCell>
        <mxCell id="K5UNilDVBnnlTLyJL09D-11" value="TheHive" style="rounded=1;whiteSpace=wrap;html=1;" vertex="1" parent="1">
          <mxGeometry x="950" y="340" width="120" height="60" as="geometry" />
        </mxCell>
        <mxCell id="K5UNilDVBnnlTLyJL09D-24" style="edgeStyle=orthogonalEdgeStyle;rounded=0;orthogonalLoop=1;jettySize=auto;html=1;entryX=1;entryY=0.5;entryDx=0;entryDy=0;exitX=1;exitY=0.5;exitDx=0;exitDy=0;" edge="1" parent="1" source="K5UNilDVBnnlTLyJL09D-12" target="K5UNilDVBnnlTLyJL09D-8">
          <mxGeometry relative="1" as="geometry" />
        </mxCell>
        <mxCell id="K5UNilDVBnnlTLyJL09D-12" value="Prometheus" style="rounded=1;whiteSpace=wrap;html=1;" vertex="1" parent="1">
          <mxGeometry x="830" y="180" width="120" height="60" as="geometry" />
        </mxCell>
        <mxCell id="K5UNilDVBnnlTLyJL09D-32" style="edgeStyle=orthogonalEdgeStyle;rounded=0;orthogonalLoop=1;jettySize=auto;html=1;entryX=0.5;entryY=0;entryDx=0;entryDy=0;" edge="1" parent="1" source="K5UNilDVBnnlTLyJL09D-31" target="K5UNilDVBnnlTLyJL09D-7">
          <mxGeometry relative="1" as="geometry" />
        </mxCell>
        <mxCell id="K5UNilDVBnnlTLyJL09D-31" value="Network devices" style="rounded=1;whiteSpace=wrap;html=1;" vertex="1" parent="1">
          <mxGeometry x="670" y="70" width="120" height="60" as="geometry" />
        </mxCell>
        <mxCell id="K5UNilDVBnnlTLyJL09D-33" value="syslog" style="text;html=1;align=center;verticalAlign=middle;whiteSpace=wrap;rounded=0;" vertex="1" parent="1">
          <mxGeometry x="720" y="150" width="60" height="30" as="geometry" />
        </mxCell>
      </root>
    </mxGraphModel>
  </diagram>
</mxfile>
